#!OML:ASF F:\VICON\USERDATA\INSTALL\rory3\rory3.ASF
:FULLY-SPECIFIED
:DEGREES
1093
root 0.840461 18.1206 3.5791 -1.51885 -8.82912 -359.174
lowerback 7.24864 -1.00364 -2.98229
upperback -0.698063 -1.59913 0.0583101
thorax -4.7103 -0.714035 1.91418
lowerneck -13.4916 -11.6534 -17.3888
upperneck 25.7113 -15.6618 11.0907
head 13.1981 -7.48807 4.4827
rclavicle -5.38734e-014 -5.26779e-015
rhumerus -33.0074 -8.2113 -86.5157
rradius 28.3761
rwrist 8.9016
rhand -13.7352 8.33368
rfingers 7.12502
rthumb 12.3844 -21.2795
lclavicle -5.38734e-014 -5.26779e-015
lhumerus -36.1181 6.77925 83.7986
lradius 29.3555
lwrist -9.33277
lhand -15.8908 24.7739
lfingers 7.12502
lthumb 10.3055 54.5014
rfemur -5.79357 4.93392 19.2218
rtibia 23.8381
rfoot -13.0058 1.5615
rtoes -3.57171
lfemur 3.96262 3.42966 -22.8046
ltibia 8.81556
lfoot -6.31376 -0.601672
ltoes -5.44872
1094
root 0.840675 18.1242 3.57422 -1.50186 -8.81609 -359.155
lowerback 7.33519 -1.02083 -3.0385
upperback -0.726913 -1.63039 0.0623506
thorax -4.78608 -0.726272 1.95599
lowerneck -13.526 -11.6574 -17.3707
upperneck 25.7129 -15.6665 11.0896
head 13.2047 -7.48711 4.47684
rclavicle 1.23227e-014 -1.10822e-014
rhumerus -33.1265 -8.21929 -86.5076
rradius 28.5571
rwrist 8.92627
rhand -13.8213 8.3552
rfingers 7.12502
rthumb 12.3014 -21.263
lclavicle 1.23227e-014 -1.10822e-014
lhumerus -36.1874 6.76827 83.791
lradius 29.345
lwrist -9.31076
lhand -15.8074 24.8243
lfingers 7.12502
lthumb 10.386 54.5478
rfemur -5.83414 4.9926 19.2015
rtibia 23.8724
rfoot -12.995 1.53355
rtoes -3.25889
lfemur 4.02993 3.41598 -22.8099
ltibia 8.60162
lfoot -6.17317 -0.630148
ltoes -5.1689
1095
root 0.840519 18.1273 3.56941 -1.44688 -8.70742 -359.061
lowerback 7.42095 -1.07388 -3.19275
upperback -0.780541 -1.71939 0.0567385
thorax -4.8817 -0.763833 2.04971
lowerneck -13.6225 -11.6512 -17.3277
upperneck 25.774 -15.6469 11.0503
head 13.2379 -7.47477 4.45532
rclavicle -9.20544e-015 8.00108e-015
rhumerus -33.2138 -8.17971 -86.5085
rradius 28.6819
rwrist 8.91027
rhand -13.8251 8.47884
rfingers 7.12502
rthumb 12.2978 -21.1395
lclavicle -9.20544e-015 8.00108e-015
lhumerus -36.2392 6.84997 83.7411
lradius 29.2943
lwrist -9.36966
lhand -15.745 24.814
lfingers 7.12502
lthumb 10.4461 54.5344
rfemur -5.92007 4.89187 19.0931
rtibia 23.8975
rfoot -12.9917 1.49855
rtoes -3.42394
lfemur 4.02708 3.30671 -22.9068
ltibia 8.42018
lfoot -6.0545 -0.66175
ltoes -5.3543
1096
root 0.841568 18.1271 3.56718 -1.4113 -8.67991 -358.988
lowerback 7.4574 -1.10858 -3.30935
upperback -0.804384 -1.77856 0.0479228
thorax -4.92084 -0.788996 2.114
lowerneck -13.6936 -11.6402 -17.2943
upperneck 25.8049 -15.6322 11.0536
head 13.2597 -7.46195 4.45191
rclavicle -1.67647e-015 1.09332e-015
rhumerus -33.1715 -8.12428 -86.5504
rradius 28.6212
rwrist 8.74192
rhand -13.8186 8.85396
rfingers 7.12502
rthumb 12.304 -20.764
lclavicle -1.67647e-015 1.09332e-015
lhumerus -36.2058 6.96794 83.6632
lradius 29.113
lwrist -9.44085
lhand -15.8397 24.5917
lfingers 7.12502
lthumb 10.3548 54.3167
rfemur -6.0001 4.84903 19.0066
rtibia 23.9298
rfoot -12.991 1.49544
rtoes -3.51624
lfemur 4.06856 3.27944 -22.985
ltibia 8.2278
lfoot -5.94982 -0.677464
ltoes -5.48131
1097
root 0.843152 18.1266 3.56742 -1.38257 -8.73527 -358.966
lowerback 7.47769 -1.11673 -3.34111
upperback -0.838216 -1.79397 0.0448077
thorax -4.96601 -0.794468 2.13145
lowerneck -13.6966 -11.6373 -17.3536
upperneck 25.8302 -15.6373 11.1196
head 13.2847 -7.46272 4.4865
rclavicle 2.45406e-014 -6.36111e-015
rhumerus -33.2155 -8.05861 -86.5611
rradius 28.592
rwrist 8.70975
rhand -13.8046 9.01549
rfingers 7.12502
rthumb 12.3175 -20.6017
lclavicle 2.45406e-014 -6.36111e-015
lhumerus -36.2537 6.87351 83.6707
lradius 29.0374
lwrist -9.36887
lhand -15.9507 24.5784
lfingers 7.12502
lthumb 10.2477 54.3088
rfemur -6.05565 4.93965 18.9768
rtibia 23.9699
rfoot -12.9792 1.49555
rtoes -3.39518
lfemur 4.11765 3.33407 -23.006
ltibia 8.0731
lfoot -5.89273 -0.689495
ltoes -5.21665
1098
root 0.846052 18.1275 3.56736 -1.43182 -8.79764 -358.889
lowerback 7.55587 -1.10561 -3.41994
upperback -0.856201 -1.7906 0.0305229
thorax -5.02752 -0.789316 2.16297
lowerneck -13.6338 -11.6164 -17.4266
upperneck 25.8327 -15.6214 11.1881
head 13.2845 -7.45825 4.5315
rclavicle -2.98049e-014 -6.31141e-015
rhumerus -33.3029 -8.10179 -86.4797
rradius 28.6182
rwrist 8.97747
rhand -13.7069 8.83999
rfingers 7.12502
rthumb 12.4117 -20.7715
lclavicle -2.98049e-014 -6.31141e-015
lhumerus -36.3449 6.83574 83.692
lradius 29.0312
lwrist -9.38469
lhand -16.0503 24.743
lfingers 7.12502
lthumb 10.1516 54.4781
rfemur -6.02484 4.94918 18.8724
rtibia 23.9917
rfoot -13.0185 1.59731
rtoes -3.1119
lfemur 4.18491 3.40152 -23.099
ltibia 8.03577
lfoot -5.86124 -0.688771
ltoes -4.97192
1099
root 0.849502 18.1271 3.56621 -1.45734 -8.87209 -358.884
lowerback 7.61337 -1.0981 -3.41801
upperback -0.850536 -1.78203 0.0412433
thorax -5.05438 -0.784478 2.17358
lowerneck -13.6347 -11.596 -17.4304
upperneck 25.8237 -15.5826 11.1692
head 13.2725 -7.44365 4.53261
rclavicle 1.46798e-015 1.98785e-016
rhumerus -33.2588 -8.12175 -86.4237
rradius 28.5374
rwrist 9.07187
rhand -13.7729 8.97155
rfingers 7.12502
rthumb 12.3481 -20.6438
lclavicle 1.46798e-015 1.98785e-016
lhumerus -36.3603 6.9665 83.6845
lradius 29.0189
lwrist -9.45386
lhand -16.2106 24.8245
lfingers 7.12502
lthumb 9.99696 54.5671
rfemur -6.01651 4.93525 18.8503
rtibia 23.9934
rfoot -13.0429 1.68946
rtoes -3.06677
lfemur 4.20484 3.47848 -23.1226
ltibia 8.0592
lfoot -5.88477 -0.662373
ltoes -5.25289
1100
root 0.851554 18.1278 3.56431 -1.42979 -8.97485 -359.056
lowerback 7.63582 -1.08815 -3.25778
upperback -0.810894 -1.75074 0.101606
thorax -5.03 -0.773601 2.14281
lowerneck -13.7858 -11.616 -17.3985
upperneck 25.8502 -15.5823 11.127
head 13.3071 -7.43813 4.50421
rclavicle -1.5438e-014 -9.0447e-015
rhumerus -33.1411 -8.11192 -86.4172
rradius 28.447
rwrist 9.05177
rhand -13.8971 9.20844
rfingers 7.12502
rthumb 12.2284 -20.4141
lclavicle -1.5438e-014 -9.0447e-015
lhumerus -36.2254 7.04001 83.7101
lradius 28.9006
lwrist -9.44119
lhand -16.1745 24.9195
lfingers 7.12502
lthumb 10.0318 54.6604
rfemur -6.02815 5.02674 19.0379
rtibia 23.9853
rfoot -13.0269 1.71679
rtoes -2.78682
lfemur 4.18322 3.57589 -22.9373
ltibia 8.0967
lfoot -5.93376 -0.661041
ltoes -5.5184
1101
root 0.851882 18.1296 3.56252 -1.40599 -9.0226 -359.132
lowerback 7.64946 -1.10276 -3.20841
upperback -0.795928 -1.76461 0.125218
thorax -5.02185 -0.781829 2.14138
lowerneck -13.7973 -11.6139 -17.3887
upperneck 25.7899 -15.5748 11.1369
head 13.2832 -7.43217 4.50652
rclavicle -1.72469e-014 -4.27387e-015
rhumerus -33.108 -8.19295 -86.3863
rradius 28.4273
rwrist 9.2822
rhand -13.9062 9.0751
rfingers 7.12502
rthumb 12.2196 -20.5479
lclavicle -1.72469e-014 -4.27387e-015
lhumerus -36.1734 7.06008 83.6907
lradius 28.8536
lwrist -9.41128
lhand -16.1205 25.0781
lfingers 7.12502
lthumb 10.0839 54.8165
rfemur -6.05117 5.08006 19.1251
rtibia 23.9883
rfoot -12.9955 1.72853
rtoes -2.64999
lfemur 4.14459 3.62 -22.8443
ltibia 8.13507
lfoot -5.97421 -0.684933
ltoes -5.3163
1102
root 0.85287 18.129 3.56016 -1.41441 -9.05094 -359.132
lowerback 7.69445 -1.11798 -3.22493
upperback -0.796097 -1.78757 0.135569
thorax -5.04532 -0.792093 2.16534
lowerneck -13.7155 -11.6073 -17.4933
upperneck 25.7139 -15.5719 11.2283
head 13.2544 -7.43421 4.56197
rclavicle -7.57595e-015 -5.96354e-015
rhumerus -33.1026 -8.18296 -86.3624
rradius 28.4835
rwrist 9.31461
rhand -13.7351 8.61338
rfingers 7.12502
rthumb 12.3845 -20.9998
lclavicle -7.57595e-015 -5.96354e-015
lhumerus -36.265 7.10611 83.6692
lradius 28.964
lwrist -9.39849
lhand -16.1311 25.2455
lfingers 7.12502
lthumb 10.0737 54.9844
rfemur -6.05255 5.1315 19.1225
rtibia 23.9882
rfoot -12.9728 1.72516
rtoes -2.67155
lfemur 4.11153 3.6484 -22.8425
ltibia 8.19938
lfoot -5.99888 -0.660556
ltoes -5.31531
1103
root 0.854479 18.1286 3.55813 -1.41828 -9.10905 -359.059
lowerback 7.71141 -1.09991 -3.28779
upperback -0.776804 -1.77109 0.107535
thorax -5.03482 -0.783032 2.16971
lowerneck -13.7449 -11.6326 -17.5142
upperneck 25.6964 -15.5998 11.2407
head 13.2616 -7.44543 4.56234
rclavicle -2.36298e-014 2.83268e-015
rhumerus -33.0415 -8.19767 -86.3637
rradius 28.5732
rwrist 9.06132
rhand -13.4613 8.18381
rfingers 7.12502
rthumb 12.6485 -21.4132
lclavicle -2.36298e-014 2.83268e-015
lhumerus -36.2603 6.9947 83.7022
lradius 29.0252
lwrist -9.27067
lhand -16.1242 25.3122
lfingers 7.12502
lthumb 10.0804 55.0508
rfemur -6.07105 5.2095 19.026
rtibia 23.9889
rfoot -12.9384 1.7942
rtoes -1.9278
lfemur 4.06161 3.70831 -22.9291
ltibia 8.25611
lfoot -6.00237 -0.656586
ltoes -5.33651
